<?xml version="1.0" encoding="UTF-8" standalone="no"?>
<svg xmlns:svg="http://www.w3.org/2000/svg" xmlns="http://www.w3.org/2000/svg" viewBox="0 0 500 500">
  <g transform="translate(0,-552.36216)">
    <path style="fill:#000000;fill-opacity:1;fill-rule:nonzero;stroke:none;stroke-width:1;stroke-linecap:butt;stroke-linejoin:miter;stroke-miterlimit:4;stroke-dasharray:none;stroke-dashoffset:0;stroke-opacity:1" d="m 250,602.36217 99.99999,0 c 0,0 50,110 50,199.99999 0,100 -20,100 -20,100 l -129.99999,0" id="path3344" />
    <path style="fill:#ffffff;fill-opacity:1;fill-rule:nonzero;stroke:none;stroke-width:1;stroke-linecap:butt;stroke-linejoin:miter;stroke-miterlimit:4;stroke-dasharray:none;stroke-dashoffset:0;stroke-opacity:1" d="m 279.99999,652.36217 60,0 c 20.00001,49.99999 30,100 30,149.99999 l -90,0" id="path3346" />
    <rect style="fill:#ffffff;fill-opacity:1;fill-rule:nonzero;stroke:none;stroke-width:1;stroke-linecap:butt;stroke-linejoin:miter;stroke-miterlimit:4;stroke-dasharray:none;stroke-dashoffset:0;stroke-opacity:1" id="rect3348" width="59.999992" height="29.999981" x="300" y="832.36218"/>
    <path id="path3350" d="m 249.99999,602.36217 -99.99999,0 c 0,0 -50.000004,110 -50.000004,199.99999 0,100 20.000004,100 20.000004,100 l 129.99999,0" style="fill:#000000;fill-opacity:1;fill-rule:nonzero;stroke:none;stroke-width:1;stroke-linecap:butt;stroke-linejoin:miter;stroke-miterlimit:4;stroke-dasharray:none;stroke-dashoffset:0;stroke-opacity:1"/>
    <path id="path3352" d="m 220,652.36217 -60,0 c -20.00001,49.99999 -30,100 -30,149.99999 l 90,0" style="fill:#ffffff;fill-opacity:1;fill-rule:nonzero;stroke:none;stroke-width:1;stroke-linecap:butt;stroke-linejoin:miter;stroke-miterlimit:4;stroke-dasharray:none;stroke-dashoffset:0;stroke-opacity:1"/>
    <rect y="832.36218" x="-200" height="29.999981" width="59.999992" id="rect3354" style="fill:#ffffff;fill-opacity:1;fill-rule:nonzero;stroke:none;stroke-width:1;stroke-linecap:butt;stroke-linejoin:miter;stroke-miterlimit:4;stroke-dasharray:none;stroke-dashoffset:0;stroke-opacity:1" transform="scale(-1,1)"/>
    <path style="fill:#000000;fill-opacity:1;fill-rule:nonzero;stroke:none;stroke-width:1;stroke-linecap:butt;stroke-linejoin:miter;stroke-miterlimit:4;stroke-dasharray:none;stroke-dashoffset:0;stroke-opacity:1" d="m 100,1002.3622 50,0 50,-90.00004 -30,0 z" id="path3356" transform="translate(-3.5999999e-6,2.7999999e-6)" />
    <path style="fill:#000000;fill-opacity:1;fill-rule:nonzero;stroke:none;stroke-width:1;stroke-linecap:butt;stroke-linejoin:miter;stroke-miterlimit:4;stroke-dasharray:none;stroke-dashoffset:0;stroke-opacity:1" d="m 399.99999,1002.3622 -50,0 -50,-90.00004 30,0 z" id="path3356-6" />
  </g>
</svg>